<svg xmlns="http://www.w3.org/2000/svg" xmlns:xlink="http://www.w3.org/1999/xlink" viewBox="0 0 226.08 226.08"><defs><style>.cls-1,.cls-6{fill:none;}.cls-2,.cls-7{fill:#137230;}.cls-3{fill:#f7f7f7;}.cls-4{fill:#034915;}.cls-5{clip-path:url(#clip-path);}.cls-6{stroke:#137230;stroke-linecap:round;stroke-miterlimit:10;stroke-width:7px;}.cls-7{opacity:0.6;}</style><clipPath id="clip-path"><path id="_Clipping_Path_" data-name="&lt;Clipping Path&gt;" class="cls-1" d="M80.54,126.46c-1.43,0-2.42,2-1.87,3.79,2.81,9.39,12.23,33,35.59,33s33-23.81,35.88-33.28c.56-1.82-.44-3.82-1.88-3.82Z"/></clipPath></defs><title>87899-OIHIVG-929</title><g id="success"><g id="_Group_" data-name="&lt;Group&gt;"><g id="_Group_2" data-name="&lt;Group&gt;"><path class="cls-2" d="M113,213.16A100.13,100.13,0,1,1,213.16,113,100.24,100.24,0,0,1,113,213.16Z"/><path id="_Path_" data-name="&lt;Path&gt;" class="cls-3" d="M203.16,113A90.13,90.13,0,1,1,113,22.91,90.12,90.12,0,0,1,203.16,113Z"/></g><g id="_Group_3" data-name="&lt;Group&gt;"><path id="_Path_2" data-name="&lt;Path&gt;" class="cls-4" d="M80.54,126.46c-1.43,0-2.42,2-1.87,3.79,2.81,9.39,12.23,33,35.59,33s33-23.81,35.88-33.28c.56-1.82-.44-3.82-1.88-3.82Z"/><g id="_Clip_Group_" data-name="&lt;Clip Group&gt;"><g class="cls-5"><ellipse id="_Path_3" data-name="&lt;Path&gt;" class="cls-2" cx="113.89" cy="163.34" rx="25.42" ry="18.82"/></g></g></g><g id="_Group_4" data-name="&lt;Group&gt;"><path id="_Path_4" data-name="&lt;Path&gt;" class="cls-6" d="M141.08,106.17s-.16-14,12.27-14,12.17,13.86,12.17,13.86"/><path id="_Path_5" data-name="&lt;Path&gt;" class="cls-6" d="M60.55,106.17s-.16-14,12.28-14S85,106.06,85,106.06"/></g><g id="_Group_5" data-name="&lt;Group&gt;"><circle id="_Path_6" data-name="&lt;Path&gt;" class="cls-7" cx="49.94" cy="126.58" r="13.11"/><circle id="_Path_7" data-name="&lt;Path&gt;" class="cls-7" cx="176.14" cy="126.58" r="13.11"/></g></g></g></svg>